<svg xmlns="http://www.w3.org/2000/svg" width="1130" height="544" font-family="monospace" viewBox="0 0 1130 544">
<rect width="1130" height="544" fill="#fbfdff"/>
<defs><marker id="arw" markerWidth="9" markerHeight="9" refX="8" refY="3" orient="auto"><path d="M0,0 L8,3 L0,6 Z" fill="#4a5568"/></marker><marker id="arwN" markerWidth="9" markerHeight="9" refX="8" refY="3" orient="auto"><path d="M0,0 L8,3 L0,6 Z" fill="#e53e3e"/></marker></defs>
<text x="20" y="24" font-size="15" font-weight="bold" fill="#1a202c">angled_screw_lift  —  functions → behaviors → pieces → elements → bindings → protocols</text>
<text x="40" y="74" font-size="10" font-weight="bold" fill="#718096">PIECES</text>
<text x="250" y="74" font-size="10" font-weight="bold" fill="#718096">ELEMENTS / FEATURES</text>
<text x="470" y="74" font-size="10" font-weight="bold" fill="#718096">BEHAVIORS</text>
<text x="700" y="74" font-size="10" font-weight="bold" fill="#718096">PROTOCOLS</text>
<text x="940" y="74" font-size="10" font-weight="bold" fill="#718096">ASSEMBLY RULES</text>
<text x="20" y="44" font-size="10" fill="#718096">INTENT:</text>
<rect x="80" y="30" width="118.0" height="20" rx="10" fill="#ebf8ff" stroke="#3182ce"/><circle cx="91" cy="40" r="3.2" fill="#3182ce"/><text x="100" y="44" font-size="10" fill="#2c5282">raise: platform</text>
<rect x="210.0" y="30" width="111.60000000000001" height="20" rx="10" fill="#ebf8ff" stroke="#3182ce"/><circle cx="221.0" cy="40" r="3.2" fill="#3182ce"/><text x="230.0" y="44" font-size="10" fill="#2c5282">hold: platform</text>
<line x1="400" y1="107.0" x2="470" y2="107.0" stroke="#718096" stroke-width="1.2" marker-end="url(#arw)"/>
<rect x="406.4" y="96.0" width="46.0" height="12" rx="3" fill="#ffffff" fill-opacity="0.88"/>
<text x="429.4" y="105.0" font-size="8" fill="#4a5568" text-anchor="middle">realizes</text>
<line x1="620" y1="107.0" x2="700" y2="107.0" stroke="#718096" stroke-width="1.2" marker-end="url(#arw)"/>
<rect x="623.1" y="96.0" width="61.0" height="12" rx="3" fill="#ffffff" fill-opacity="0.88"/>
<text x="653.6" y="105.0" font-size="8" fill="#4a5568" text-anchor="middle">verified_by</text>
<line x1="400" y1="183.0" x2="470" y2="183.0" stroke="#718096" stroke-width="1.2" marker-end="url(#arw)"/>
<rect x="406.4" y="172.0" width="46.0" height="12" rx="3" fill="#ffffff" fill-opacity="0.88"/>
<text x="429.4" y="181.0" font-size="8" fill="#4a5568" text-anchor="middle">realizes</text>
<line x1="620" y1="183.0" x2="700" y2="259.0" stroke="#718096" stroke-width="1.2" marker-end="url(#arw)"/>
<rect x="623.1" y="203.92" width="61.0" height="12" rx="3" fill="#ffffff" fill-opacity="0.88"/>
<text x="653.6" y="212.92" font-size="8" fill="#4a5568" text-anchor="middle">verified_by</text>
<line x1="400" y1="183.0" x2="470" y2="259.0" stroke="#718096" stroke-width="1.2" marker-end="url(#arw)"/>
<rect x="406.4" y="203.92" width="46.0" height="12" rx="3" fill="#ffffff" fill-opacity="0.88"/>
<text x="429.4" y="212.92" font-size="8" fill="#4a5568" text-anchor="middle">realizes</text>
<line x1="400" y1="107.0" x2="470" y2="335.0" stroke="#718096" stroke-width="1.2" stroke-dasharray="5,4" marker-end="url(#arw)"/>
<rect x="408.9" y="191.76" width="41.0" height="12" rx="3" fill="#ffffff" fill-opacity="0.88"/>
<text x="429.4" y="200.76" font-size="8" fill="#4a5568" text-anchor="middle">imposes</text>
<line x1="400" y1="183.0" x2="470" y2="411.0" stroke="#718096" stroke-width="1.2" stroke-dasharray="5,4" marker-end="url(#arw)"/>
<rect x="408.9" y="267.76" width="41.0" height="12" rx="3" fill="#ffffff" fill-opacity="0.88"/>
<text x="429.4" y="276.76" font-size="8" fill="#4a5568" text-anchor="middle">imposes</text>
<line x1="250" y1="107.0" x2="190" y2="259.0" stroke="#718096" stroke-width="1.2" marker-end="url(#arw)"/>
<rect x="201.8" y="159.84" width="46.0" height="12" rx="3" fill="#ffffff" fill-opacity="0.88"/>
<text x="224.8" y="168.84" font-size="8" fill="#4a5568" text-anchor="middle">shaft_in</text>
<line x1="250" y1="107.0" x2="190" y2="107.0" stroke="#718096" stroke-width="1.2" marker-end="url(#arw)"/>
<rect x="199.3" y="96.0" width="51.0" height="12" rx="3" fill="#ffffff" fill-opacity="0.88"/>
<text x="224.8" y="105.0" font-size="8" fill="#4a5568" text-anchor="middle">shaft_out</text>
<line x1="250" y1="107.0" x2="190" y2="107.0" stroke="#718096" stroke-width="1.2" marker-end="url(#arw)"/>
<rect x="194.3" y="96.0" width="61.0" height="12" rx="3" fill="#ffffff" fill-opacity="0.88"/>
<text x="224.8" y="105.0" font-size="8" fill="#4a5568" text-anchor="middle">cross_pivot</text>
<line x1="250" y1="183.0" x2="190" y2="107.0" stroke="#718096" stroke-width="1.2" marker-end="url(#arw)"/>
<rect x="196.8" y="140.08" width="56.0" height="12" rx="3" fill="#ffffff" fill-opacity="0.88"/>
<text x="224.8" y="149.08" font-size="8" fill="#4a5568" text-anchor="middle">screw_axis</text>
<line x1="250" y1="183.0" x2="190" y2="183.0" stroke="#718096" stroke-width="1.2" marker-end="url(#arw)"/>
<rect x="199.3" y="172.0" width="51.0" height="12" rx="3" fill="#ffffff" fill-opacity="0.88"/>
<text x="224.8" y="181.0" font-size="8" fill="#4a5568" text-anchor="middle">nut_mount</text>
<line x1="250" y1="183.0" x2="190" y2="183.0" stroke="#718096" stroke-width="1.2" marker-end="url(#arw)"/>
<rect x="194.3" y="172.0" width="61.0" height="12" rx="3" fill="#ffffff" fill-opacity="0.88"/>
<text x="224.8" y="181.0" font-size="8" fill="#4a5568" text-anchor="middle">travel_axis</text>
<rect x="40" y="84" width="150" height="46" rx="6" fill="#edf2f7" stroke="#4a5568" stroke-width="1.5"/><text x="115.0" y="102" font-size="11" font-family="monospace" font-weight="bold" fill="#1a202c" text-anchor="middle">P1  base</text><text x="115.0" y="116" font-size="9.5" font-family="monospace" font-weight="normal" fill="#4a5568" text-anchor="middle">screw_base</text><line x1="115.0" y1="130" x2="115.0" y2="133" stroke="#4a5568" stroke-width="1.5"/><line x1="101.0" y1="133" x2="129.0" y2="133" stroke="#4a5568" stroke-width="1.5"/><line x1="106.0" y1="136" x2="124.0" y2="136" stroke="#4a5568" stroke-width="1.5"/><line x1="111.0" y1="139" x2="119.0" y2="139" stroke="#4a5568" stroke-width="1.5"/>
<rect x="40" y="160" width="150" height="46" rx="6" fill="#edf2f7" stroke="#4a5568" stroke-width="1.5"/><text x="115.0" y="178" font-size="11" font-family="monospace" font-weight="bold" fill="#1a202c" text-anchor="middle">P2  platform</text><text x="115.0" y="192" font-size="9.5" font-family="monospace" font-weight="normal" fill="#4a5568" text-anchor="middle">nut_carriage</text>
<rect x="40" y="236" width="150" height="46" rx="6" fill="#edf2f7" stroke="#4a5568" stroke-width="1.5"/><text x="115.0" y="254" font-size="11" font-family="monospace" font-weight="bold" fill="#1a202c" text-anchor="middle">P3  crank</text><text x="115.0" y="268" font-size="9.5" font-family="monospace" font-weight="normal" fill="#4a5568" text-anchor="middle">shaft_carrier_out_angled</text>
<rect x="250" y="84" width="150" height="46" rx="6" fill="#c6f6d5" stroke="#38a169" stroke-width="1.5"/><text x="325.0" y="102" font-size="11" font-family="monospace" font-weight="bold" fill="#1a202c" text-anchor="middle">E1</text><text x="325.0" y="116" font-size="9.5" font-family="monospace" font-weight="normal" fill="#4a5568" text-anchor="middle">universal_joint</text>
<rect x="250" y="160" width="150" height="46" rx="6" fill="#c6f6d5" stroke="#38a169" stroke-width="1.5"/><text x="325.0" y="178" font-size="11" font-family="monospace" font-weight="bold" fill="#1a202c" text-anchor="middle">E2</text><text x="325.0" y="192" font-size="9.5" font-family="monospace" font-weight="normal" fill="#4a5568" text-anchor="middle">lead_screw</text>
<rect x="470" y="84" width="150" height="46" rx="6" fill="#bee3f8" stroke="#3182ce" stroke-width="1.5"/><text x="545.0" y="102" font-size="11" font-family="monospace" font-weight="bold" fill="#1a202c" text-anchor="middle">B0 · use</text><text x="545.0" y="116" font-size="9.5" font-family="monospace" font-weight="normal" fill="#4a5568" text-anchor="middle">rotation</text>
<rect x="470" y="160" width="150" height="46" rx="6" fill="#bee3f8" stroke="#3182ce" stroke-width="1.5"/><text x="545.0" y="178" font-size="11" font-family="monospace" font-weight="bold" fill="#1a202c" text-anchor="middle">B1 · use</text><text x="545.0" y="192" font-size="9.5" font-family="monospace" font-weight="normal" fill="#4a5568" text-anchor="middle">rot_to_trans ≥40mm</text>
<rect x="470" y="236" width="150" height="46" rx="6" fill="#e2e8f0" stroke="#718096" stroke-width="1.5"/><text x="545.0" y="254" font-size="11" font-family="monospace" font-weight="bold" fill="#1a202c" text-anchor="middle">B2 · static</text><text x="545.0" y="268" font-size="9.5" font-family="monospace" font-weight="normal" fill="#4a5568" text-anchor="middle">fixed</text>
<rect x="470" y="312" width="150" height="46" rx="6" fill="#fed7aa" stroke="#dd6b20" stroke-width="1.5"/><text x="545.0" y="330" font-size="11" font-family="monospace" font-weight="bold" fill="#1a202c" text-anchor="middle">B4 · assembly</text><text x="545.0" y="344" font-size="9.5" font-family="monospace" font-weight="normal" fill="#4a5568" text-anchor="middle">translation</text>
<rect x="470" y="388" width="150" height="46" rx="6" fill="#fed7aa" stroke="#dd6b20" stroke-width="1.5"/><text x="545.0" y="406" font-size="11" font-family="monospace" font-weight="bold" fill="#1a202c" text-anchor="middle">B5 · assembly</text><text x="545.0" y="420" font-size="9.5" font-family="monospace" font-weight="normal" fill="#4a5568" text-anchor="middle">translation</text>
<rect x="700" y="84" width="150" height="46" rx="6" fill="#ffffff" stroke="#805ad5" stroke-width="1.5"/><text x="775.0" y="102" font-size="11" font-family="monospace" font-weight="bold" fill="#1a202c" text-anchor="middle">P-UJOINT-VA-E1</text><text x="775.0" y="116" font-size="9.5" font-family="monospace" font-weight="normal" fill="#4a5568" text-anchor="middle">2 gates / 1 obs</text>
<rect x="700" y="160" width="150" height="46" rx="6" fill="#ffffff" stroke="#805ad5" stroke-width="1.5"/><text x="775.0" y="178" font-size="11" font-family="monospace" font-weight="bold" fill="#1a202c" text-anchor="middle">P-SCREW-VA-E2</text><text x="775.0" y="192" font-size="9.5" font-family="monospace" font-weight="normal" fill="#4a5568" text-anchor="middle">2 gates / 0 obs</text>
<rect x="700" y="236" width="150" height="46" rx="6" fill="#ffffff" stroke="#805ad5" stroke-width="1.5"/><text x="775.0" y="254" font-size="11" font-family="monospace" font-weight="bold" fill="#1a202c" text-anchor="middle">P-ALIFT-VA</text><text x="775.0" y="268" font-size="9.5" font-family="monospace" font-weight="normal" fill="#4a5568" text-anchor="middle">2 gates / 0 obs</text>
<rect x="20" y="518" width="14" height="14" fill="#bee3f8" stroke="#3182ce"/><text x="38" y="529" font-size="9" fill="#4a5568">use</text>
<rect x="68.0" y="518" width="14" height="14" fill="#fed7aa" stroke="#dd6b20"/><text x="86.0" y="529" font-size="9" fill="#4a5568">assembly</text>
<rect x="146.0" y="518" width="14" height="14" fill="#e2e8f0" stroke="#718096"/><text x="164.0" y="529" font-size="9" fill="#4a5568">static</text>
<rect x="212.0" y="518" width="14" height="14" fill="#c6f6d5" stroke="#38a169"/><text x="230.0" y="529" font-size="9" fill="#4a5568">element</text>
<rect x="284.0" y="518" width="14" height="14" fill="#fefcbf" stroke="#d69e2e"/><text x="302.0" y="529" font-size="9" fill="#4a5568">feature (hexagon)</text>
<rect x="416.0" y="518" width="14" height="14" fill="#cbd5e0" stroke="#2d3748"/><text x="434.0" y="529" font-size="9" fill="#4a5568">hardware piece [HW]</text>
<rect x="560.0" y="518" width="14" height="14" fill="#fefcbf" stroke="#b7791f"/><text x="578.0" y="529" font-size="9" fill="#4a5568">AssemblyRule (rhombus)</text>
<line x1="728.0" y1="525" x2="752.0" y2="525" stroke="#718096" stroke-width="1.4"/><text x="756.0" y="529" font-size="9" fill="#4a5568">realizes</text>
<line x1="818.0" y1="525" x2="842.0" y2="525" stroke="#718096" stroke-width="1.4" stroke-dasharray="5,4"/><text x="846.0" y="529" font-size="9" fill="#4a5568">imposes</text>
<line x1="910.0" y1="520" x2="910.0" y2="527" stroke="#4a5568" stroke-width="1.4"/><line x1="904.0" y1="527" x2="916.0" y2="527" stroke="#4a5568" stroke-width="1.4"/><line x1="906.0" y1="530" x2="914.0" y2="530" stroke="#4a5568" stroke-width="1.4"/><text x="922.0" y="529" font-size="9" fill="#4a5568">= base</text>
</svg>