<svg xmlns="http://www.w3.org/2000/svg" width="890" height="392" font-family="monospace" viewBox="0 0 890 392">
<rect width="890" height="392" fill="#fbfdff"/>
<defs><marker id="arw" markerWidth="9" markerHeight="9" refX="8" refY="3" orient="auto"><path d="M0,0 L8,3 L0,6 Z" fill="#4a5568"/></marker><marker id="arwN" markerWidth="9" markerHeight="9" refX="8" refY="3" orient="auto"><path d="M0,0 L8,3 L0,6 Z" fill="#e53e3e"/></marker></defs>
<text x="20" y="24" font-size="15" font-weight="bold" fill="#1a202c">m0_hinge_box_stop  [stop]</text>
<text x="40" y="74" font-size="10" font-weight="bold" fill="#718096">PIECES</text>
<text x="250" y="74" font-size="10" font-weight="bold" fill="#718096">ELEMENTS / FEATURES</text>
<text x="470" y="74" font-size="10" font-weight="bold" fill="#718096">BEHAVIORS</text>
<text x="700" y="74" font-size="10" font-weight="bold" fill="#718096">PROTOCOLS</text>
<text x="20" y="44" font-size="10" fill="#718096">INTENT:</text>
<rect x="80" y="30" width="162.8" height="20" rx="10" fill="#ebf8ff" stroke="#3182ce"/><circle cx="91" cy="40" r="3.2" fill="#3182ce"/><text x="100" y="44" font-size="10" fill="#2c5282">allow_access: contents</text>
<line x1="400" y1="107.0" x2="470" y2="107.0" stroke="#718096" stroke-width="1.2" marker-end="url(#arw)"/>
<rect x="406.4" y="96.0" width="46.0" height="12" rx="3" fill="#ffffff" fill-opacity="0.88"/>
<text x="429.4" y="105.0" font-size="8" fill="#4a5568" text-anchor="middle">realizes</text>
<line x1="620" y1="107.0" x2="700" y2="107.0" stroke="#718096" stroke-width="1.2" marker-end="url(#arw)"/>
<rect x="623.1" y="96.0" width="61.0" height="12" rx="3" fill="#ffffff" fill-opacity="0.88"/>
<text x="653.6" y="105.0" font-size="8" fill="#4a5568" text-anchor="middle">verified_by</text>
<line x1="400" y1="107.0" x2="470" y2="183.0" stroke="#718096" stroke-width="1.2" stroke-dasharray="5,4" marker-end="url(#arw)"/>
<rect x="408.9" y="127.91999999999999" width="41.0" height="12" rx="3" fill="#ffffff" fill-opacity="0.88"/>
<text x="429.4" y="136.92" font-size="8" fill="#4a5568" text-anchor="middle">imposes</text>
<line x1="400" y1="183.0" x2="470" y2="259.0" stroke="#718096" stroke-width="1.2" stroke-dasharray="5,4" marker-end="url(#arw)"/>
<rect x="408.9" y="203.92" width="41.0" height="12" rx="3" fill="#ffffff" fill-opacity="0.88"/>
<text x="429.4" y="212.92" font-size="8" fill="#4a5568" text-anchor="middle">imposes</text>
<line x1="620" y1="259.0" x2="700" y2="107.0" stroke="#718096" stroke-width="1.2" marker-end="url(#arw)"/>
<rect x="623.1" y="184.16" width="61.0" height="12" rx="3" fill="#ffffff" fill-opacity="0.88"/>
<text x="653.6" y="193.16" font-size="8" fill="#4a5568" text-anchor="middle">verified_by</text>
<line x1="250" y1="107.0" x2="190" y2="107.0" stroke="#718096" stroke-width="1.2" marker-end="url(#arw)"/>
<rect x="211.8" y="96.0" width="26.0" height="12" rx="3" fill="#ffffff" fill-opacity="0.88"/>
<text x="224.8" y="105.0" font-size="8" fill="#4a5568" text-anchor="middle">axis</text>
<line x1="250" y1="107.0" x2="190" y2="107.0" stroke="#718096" stroke-width="1.2" marker-end="url(#arw)"/>
<rect x="204.3" y="96.0" width="41.0" height="12" rx="3" fill="#ffffff" fill-opacity="0.88"/>
<text x="224.8" y="105.0" font-size="8" fill="#4a5568" text-anchor="middle">mount_A</text>
<line x1="250" y1="107.0" x2="190" y2="183.0" stroke="#718096" stroke-width="1.2" marker-end="url(#arw)"/>
<rect x="204.3" y="127.91999999999999" width="41.0" height="12" rx="3" fill="#ffffff" fill-opacity="0.88"/>
<text x="224.8" y="136.92" font-size="8" fill="#4a5568" text-anchor="middle">mount_B</text>
<line x1="250" y1="183.0" x2="190" y2="183.0" stroke="#718096" stroke-width="1.2" marker-end="url(#arw)"/>
<rect x="204.3" y="172.0" width="41.0" height="12" rx="3" fill="#ffffff" fill-opacity="0.88"/>
<text x="224.8" y="181.0" font-size="8" fill="#4a5568" text-anchor="middle">contact</text>
<rect x="40" y="84" width="150" height="46" rx="6" fill="#edf2f7" stroke="#4a5568" stroke-width="1.5"/><text x="115.0" y="102" font-size="11" font-family="monospace" font-weight="bold" fill="#1a202c" text-anchor="middle">P1  base</text><text x="115.0" y="116" font-size="9.5" font-family="monospace" font-weight="normal" fill="#4a5568" text-anchor="middle">box_shell</text><line x1="115.0" y1="130" x2="115.0" y2="133" stroke="#4a5568" stroke-width="1.5"/><line x1="101.0" y1="133" x2="129.0" y2="133" stroke="#4a5568" stroke-width="1.5"/><line x1="106.0" y1="136" x2="124.0" y2="136" stroke="#4a5568" stroke-width="1.5"/><line x1="111.0" y1="139" x2="119.0" y2="139" stroke="#4a5568" stroke-width="1.5"/>
<rect x="40" y="160" width="150" height="46" rx="6" fill="#edf2f7" stroke="#4a5568" stroke-width="1.5"/><text x="115.0" y="178" font-size="11" font-family="monospace" font-weight="bold" fill="#1a202c" text-anchor="middle">P2  lid</text><text x="115.0" y="192" font-size="9.5" font-family="monospace" font-weight="normal" fill="#4a5568" text-anchor="middle">lid_panel</text>
<rect x="250" y="84" width="150" height="46" rx="6" fill="#c6f6d5" stroke="#38a169" stroke-width="1.5"/><text x="325.0" y="102" font-size="11" font-family="monospace" font-weight="bold" fill="#1a202c" text-anchor="middle">E1</text><text x="325.0" y="116" font-size="9.5" font-family="monospace" font-weight="normal" fill="#4a5568" text-anchor="middle">pin_hinge</text>
<polygon points="262,160 388,160 400,183.0 388,206 262,206 250,183.0" fill="#fefcbf" stroke="#d69e2e" stroke-width="1.5"/><text x="325.0" y="178" font-size="11" font-family="monospace" font-weight="bold" fill="#1a202c" text-anchor="middle">F1</text><text x="325.0" y="192" font-size="9.5" font-family="monospace" font-weight="normal" fill="#4a5568" text-anchor="middle">stop_flange</text>
<rect x="470" y="84" width="150" height="46" rx="6" fill="#bee3f8" stroke="#3182ce" stroke-width="1.5"/><text x="545.0" y="102" font-size="11" font-family="monospace" font-weight="bold" fill="#1a202c" text-anchor="middle">B1 · use</text><text x="545.0" y="116" font-size="9.5" font-family="monospace" font-weight="normal" fill="#4a5568" text-anchor="middle">rotation ≥90°</text>
<rect x="470" y="160" width="150" height="46" rx="6" fill="#fed7aa" stroke="#dd6b20" stroke-width="1.5"/><text x="545.0" y="178" font-size="11" font-family="monospace" font-weight="bold" fill="#1a202c" text-anchor="middle">B2 · assembly</text><text x="545.0" y="192" font-size="9.5" font-family="monospace" font-weight="normal" fill="#4a5568" text-anchor="middle">translation</text>
<rect x="470" y="236" width="150" height="46" rx="6" fill="#bee3f8" stroke="#3182ce" stroke-width="1.5"/><text x="545.0" y="254" font-size="11" font-family="monospace" font-weight="bold" fill="#1a202c" text-anchor="middle">B3 · use</text><text x="545.0" y="268" font-size="9.5" font-family="monospace" font-weight="normal" fill="#4a5568" text-anchor="middle">rotation limit 109°</text>
<rect x="700" y="84" width="150" height="46" rx="6" fill="#ffffff" stroke="#805ad5" stroke-width="1.5"/><text x="775.0" y="102" font-size="11" font-family="monospace" font-weight="bold" fill="#1a202c" text-anchor="middle">P-HINGE</text><text x="775.0" y="116" font-size="9.5" font-family="monospace" font-weight="normal" fill="#4a5568" text-anchor="middle">8 gates / 2 obs</text>
<rect x="20" y="366" width="14" height="14" fill="#bee3f8" stroke="#3182ce"/><text x="38" y="377" font-size="9" fill="#4a5568">use</text>
<rect x="68.0" y="366" width="14" height="14" fill="#fed7aa" stroke="#dd6b20"/><text x="86.0" y="377" font-size="9" fill="#4a5568">assembly</text>
<rect x="146.0" y="366" width="14" height="14" fill="#e2e8f0" stroke="#718096"/><text x="164.0" y="377" font-size="9" fill="#4a5568">static</text>
<rect x="212.0" y="366" width="14" height="14" fill="#c6f6d5" stroke="#38a169"/><text x="230.0" y="377" font-size="9" fill="#4a5568">element</text>
<rect x="284.0" y="366" width="14" height="14" fill="#fefcbf" stroke="#d69e2e"/><text x="302.0" y="377" font-size="9" fill="#4a5568">feature (hexagon)</text>
<line x1="422.0" y1="373" x2="446.0" y2="373" stroke="#718096" stroke-width="1.4"/><text x="450.0" y="377" font-size="9" fill="#4a5568">realizes</text>
<line x1="512.0" y1="373" x2="536.0" y2="373" stroke="#718096" stroke-width="1.4" stroke-dasharray="5,4"/><text x="540.0" y="377" font-size="9" fill="#4a5568">imposes</text>
<line x1="604.0" y1="368" x2="604.0" y2="375" stroke="#4a5568" stroke-width="1.4"/><line x1="598.0" y1="375" x2="610.0" y2="375" stroke="#4a5568" stroke-width="1.4"/><line x1="600.0" y1="378" x2="608.0" y2="378" stroke="#4a5568" stroke-width="1.4"/><text x="616.0" y="377" font-size="9" fill="#4a5568">= base</text>
</svg>