<svg xmlns="http://www.w3.org/2000/svg" width="1130" height="772" font-family="monospace" viewBox="0 0 1130 772">
<rect width="1130" height="772" fill="#fbfdff"/>
<defs><marker id="arw" markerWidth="9" markerHeight="9" refX="8" refY="3" orient="auto"><path d="M0,0 L8,3 L0,6 Z" fill="#4a5568"/></marker><marker id="arwN" markerWidth="9" markerHeight="9" refX="8" refY="3" orient="auto"><path d="M0,0 L8,3 L0,6 Z" fill="#e53e3e"/></marker></defs>
<text x="20" y="24" font-size="15" font-weight="bold" fill="#1a202c">Hard anchor — anchor_hard @ 92cb89a</text>
<text x="40" y="74" font-size="10" font-weight="bold" fill="#718096">PIECES</text>
<text x="250" y="74" font-size="10" font-weight="bold" fill="#718096">ELEMENTS / FEATURES</text>
<text x="470" y="74" font-size="10" font-weight="bold" fill="#718096">BEHAVIORS</text>
<text x="700" y="74" font-size="10" font-weight="bold" fill="#718096">PROTOCOLS</text>
<text x="940" y="74" font-size="10" font-weight="bold" fill="#718096">ASSEMBLY RULES</text>
<text x="20" y="44" font-size="10" fill="#718096">INTENT:</text>
<rect x="80" y="30" width="162.8" height="20" rx="10" fill="#ebf8ff" stroke="#3182ce"/><circle cx="91" cy="40" r="3.2" fill="#3182ce"/><text x="100" y="44" font-size="10" fill="#2c5282">allow_access: contents</text>
<rect x="254.8" y="30" width="118.0" height="20" rx="10" fill="#ebf8ff" stroke="#3182ce"/><circle cx="265.8" cy="40" r="3.2" fill="#3182ce"/><text x="274.8" y="44" font-size="10" fill="#2c5282">convert: motion</text>
<rect x="384.8" y="30" width="105.2" height="20" rx="10" fill="#ebf8ff" stroke="#3182ce"/><circle cx="395.8" cy="40" r="3.2" fill="#3182ce"/><text x="404.8" y="44" font-size="10" fill="#2c5282">guide: drawer</text>
<line x1="400" y1="107.0" x2="470" y2="107.0" stroke="#718096" stroke-width="1.2" marker-end="url(#arw)"/>
<rect x="406.4" y="96.0" width="46.0" height="12" rx="3" fill="#ffffff" fill-opacity="0.88"/>
<text x="429.4" y="105.0" font-size="8" fill="#4a5568" text-anchor="middle">realizes</text>
<line x1="620" y1="107.0" x2="700" y2="107.0" stroke="#718096" stroke-width="1.2" marker-end="url(#arw)"/>
<rect x="623.1" y="96.0" width="61.0" height="12" rx="3" fill="#ffffff" fill-opacity="0.88"/>
<text x="653.6" y="105.0" font-size="8" fill="#4a5568" text-anchor="middle">verified_by</text>
<line x1="400" y1="183.0" x2="470" y2="183.0" stroke="#718096" stroke-width="1.2" marker-end="url(#arw)"/>
<rect x="406.4" y="172.0" width="46.0" height="12" rx="3" fill="#ffffff" fill-opacity="0.88"/>
<text x="429.4" y="181.0" font-size="8" fill="#4a5568" text-anchor="middle">realizes</text>
<line x1="620" y1="183.0" x2="700" y2="335.0" stroke="#718096" stroke-width="1.2" marker-end="url(#arw)"/>
<rect x="623.1" y="235.84" width="61.0" height="12" rx="3" fill="#ffffff" fill-opacity="0.88"/>
<text x="653.6" y="244.84" font-size="8" fill="#4a5568" text-anchor="middle">verified_by</text>
<line x1="400" y1="259.0" x2="470" y2="259.0" stroke="#718096" stroke-width="1.2" marker-end="url(#arw)"/>
<rect x="406.4" y="248.0" width="46.0" height="12" rx="3" fill="#ffffff" fill-opacity="0.88"/>
<text x="429.4" y="257.0" font-size="8" fill="#4a5568" text-anchor="middle">realizes</text>
<line x1="620" y1="259.0" x2="700" y2="563.0" stroke="#718096" stroke-width="1.2" marker-end="url(#arw)"/>
<rect x="623.1" y="375.68" width="61.0" height="12" rx="3" fill="#ffffff" fill-opacity="0.88"/>
<text x="653.6" y="384.68" font-size="8" fill="#4a5568" text-anchor="middle">verified_by</text>
<line x1="400" y1="107.0" x2="470" y2="335.0" stroke="#718096" stroke-width="1.2" stroke-dasharray="5,4" marker-end="url(#arw)"/>
<rect x="408.9" y="191.76" width="41.0" height="12" rx="3" fill="#ffffff" fill-opacity="0.88"/>
<text x="429.4" y="200.76" font-size="8" fill="#4a5568" text-anchor="middle">imposes</text>
<line x1="400" y1="107.0" x2="470" y2="411.0" stroke="#718096" stroke-width="1.2" stroke-dasharray="5,4" marker-end="url(#arw)"/>
<rect x="408.9" y="223.68" width="41.0" height="12" rx="3" fill="#ffffff" fill-opacity="0.88"/>
<text x="429.4" y="232.68" font-size="8" fill="#4a5568" text-anchor="middle">imposes</text>
<line x1="620" y1="411.0" x2="700" y2="259.0" stroke="#718096" stroke-width="1.2" marker-end="url(#arw)"/>
<rect x="623.1" y="336.16" width="61.0" height="12" rx="3" fill="#ffffff" fill-opacity="0.88"/>
<text x="653.6" y="345.16" font-size="8" fill="#4a5568" text-anchor="middle">verified_by</text>
<line x1="400" y1="183.0" x2="470" y2="487.0" stroke="#718096" stroke-width="1.2" stroke-dasharray="5,4" marker-end="url(#arw)"/>
<rect x="408.9" y="299.68" width="41.0" height="12" rx="3" fill="#ffffff" fill-opacity="0.88"/>
<text x="429.4" y="308.68" font-size="8" fill="#4a5568" text-anchor="middle">imposes</text>
<line x1="400" y1="183.0" x2="470" y2="563.0" stroke="#718096" stroke-width="1.2" stroke-dasharray="5,4" marker-end="url(#arw)"/>
<rect x="408.9" y="331.6" width="41.0" height="12" rx="3" fill="#ffffff" fill-opacity="0.88"/>
<text x="429.4" y="340.6" font-size="8" fill="#4a5568" text-anchor="middle">imposes</text>
<line x1="620" y1="563.0" x2="700" y2="487.0" stroke="#718096" stroke-width="1.2" marker-end="url(#arw)"/>
<rect x="623.1" y="520.08" width="61.0" height="12" rx="3" fill="#ffffff" fill-opacity="0.88"/>
<text x="653.6" y="529.08" font-size="8" fill="#4a5568" text-anchor="middle">verified_by</text>
<line x1="400" y1="259.0" x2="470" y2="639.0" stroke="#718096" stroke-width="1.2" stroke-dasharray="5,4" marker-end="url(#arw)"/>
<rect x="408.9" y="407.6" width="41.0" height="12" rx="3" fill="#ffffff" fill-opacity="0.88"/>
<text x="429.4" y="416.6" font-size="8" fill="#4a5568" text-anchor="middle">imposes</text>
<line x1="250" y1="107.0" x2="190" y2="107.0" stroke="#718096" stroke-width="1.2" marker-end="url(#arw)"/>
<rect x="196.8" y="96.0" width="56.0" height="12" rx="3" fill="#ffffff" fill-opacity="0.88"/>
<text x="224.8" y="105.0" font-size="8" fill="#4a5568" text-anchor="middle">rail_mount</text>
<line x1="250" y1="107.0" x2="190" y2="183.0" stroke="#718096" stroke-width="1.2" marker-end="url(#arw)"/>
<rect x="186.8" y="127.91999999999999" width="76.0" height="12" rx="3" fill="#ffffff" fill-opacity="0.88"/>
<text x="224.8" y="136.92" font-size="8" fill="#4a5568" text-anchor="middle">carriage_mount</text>
<line x1="250" y1="107.0" x2="190" y2="107.0" stroke="#718096" stroke-width="1.2" marker-end="url(#arw)"/>
<rect x="194.3" y="96.0" width="61.0" height="12" rx="3" fill="#ffffff" fill-opacity="0.88"/>
<text x="224.8" y="105.0" font-size="8" fill="#4a5568" text-anchor="middle">travel_axis</text>
<line x1="250" y1="183.0" x2="190" y2="107.0" stroke="#718096" stroke-width="1.2" marker-end="url(#arw)"/>
<rect x="196.8" y="140.08" width="56.0" height="12" rx="3" fill="#ffffff" fill-opacity="0.88"/>
<text x="224.8" y="149.08" font-size="8" fill="#4a5568" text-anchor="middle">rail_mount</text>
<line x1="250" y1="183.0" x2="190" y2="259.0" stroke="#718096" stroke-width="1.2" marker-end="url(#arw)"/>
<rect x="186.8" y="203.92" width="76.0" height="12" rx="3" fill="#ffffff" fill-opacity="0.88"/>
<text x="224.8" y="212.92" font-size="8" fill="#4a5568" text-anchor="middle">carriage_mount</text>
<line x1="250" y1="183.0" x2="190" y2="107.0" stroke="#718096" stroke-width="1.2" marker-end="url(#arw)"/>
<rect x="194.3" y="140.08" width="61.0" height="12" rx="3" fill="#ffffff" fill-opacity="0.88"/>
<text x="224.8" y="149.08" font-size="8" fill="#4a5568" text-anchor="middle">travel_axis</text>
<line x1="250" y1="259.0" x2="190" y2="411.0" stroke="#718096" stroke-width="1.2" marker-end="url(#arw)"/>
<rect x="194.3" y="311.84" width="61.0" height="12" rx="3" fill="#ffffff" fill-opacity="0.88"/>
<text x="224.8" y="320.84" font-size="8" fill="#4a5568" text-anchor="middle">pinion_axis</text>
<line x1="250" y1="259.0" x2="190" y2="335.0" stroke="#718096" stroke-width="1.2" marker-end="url(#arw)"/>
<rect x="196.8" y="279.92" width="56.0" height="12" rx="3" fill="#ffffff" fill-opacity="0.88"/>
<text x="224.8" y="288.92" font-size="8" fill="#4a5568" text-anchor="middle">rack_mount</text>
<line x1="250" y1="259.0" x2="190" y2="335.0" stroke="#718096" stroke-width="1.2" marker-end="url(#arw)"/>
<rect x="199.3" y="279.92" width="51.0" height="12" rx="3" fill="#ffffff" fill-opacity="0.88"/>
<text x="224.8" y="288.92" font-size="8" fill="#4a5568" text-anchor="middle">mesh_line</text>
<line x1="940" y1="107.0" x2="400" y2="107.0" stroke="#718096" stroke-width="1.2" stroke-dasharray="5,4" marker-end="url(#arw)"/>
<rect x="690.2" y="96.0" width="46.0" height="12" rx="3" fill="#ffffff" fill-opacity="0.88"/>
<text x="713.2" y="105.0" font-size="8" fill="#4a5568" text-anchor="middle">parallel</text>
<line x1="940" y1="107.0" x2="400" y2="183.0" stroke="#718096" stroke-width="1.2" stroke-dasharray="5,4" marker-end="url(#arw)"/>
<rect x="690.2" y="127.91999999999999" width="46.0" height="12" rx="3" fill="#ffffff" fill-opacity="0.88"/>
<text x="713.2" y="136.92" font-size="8" fill="#4a5568" text-anchor="middle">parallel</text>
<rect x="40" y="84" width="150" height="46" rx="6" fill="#edf2f7" stroke="#4a5568" stroke-width="1.5"/><text x="115.0" y="102" font-size="11" font-family="monospace" font-weight="bold" fill="#1a202c" text-anchor="middle">P1  base</text><text x="115.0" y="116" font-size="9.5" font-family="monospace" font-weight="normal" fill="#4a5568" text-anchor="middle">cabinet_shell</text><line x1="115.0" y1="130" x2="115.0" y2="133" stroke="#4a5568" stroke-width="1.5"/><line x1="101.0" y1="133" x2="129.0" y2="133" stroke="#4a5568" stroke-width="1.5"/><line x1="106.0" y1="136" x2="124.0" y2="136" stroke="#4a5568" stroke-width="1.5"/><line x1="111.0" y1="139" x2="119.0" y2="139" stroke="#4a5568" stroke-width="1.5"/>
<rect x="40" y="160" width="150" height="46" rx="6" fill="#edf2f7" stroke="#4a5568" stroke-width="1.5"/><text x="115.0" y="178" font-size="11" font-family="monospace" font-weight="bold" fill="#1a202c" text-anchor="middle">P2  carriage_L</text><text x="115.0" y="192" font-size="9.5" font-family="monospace" font-weight="normal" fill="#4a5568" text-anchor="middle">slide_carriage</text>
<rect x="40" y="236" width="150" height="46" rx="6" fill="#edf2f7" stroke="#4a5568" stroke-width="1.5"/><text x="115.0" y="254" font-size="11" font-family="monospace" font-weight="bold" fill="#1a202c" text-anchor="middle">P3  carriage_R</text><text x="115.0" y="268" font-size="9.5" font-family="monospace" font-weight="normal" fill="#4a5568" text-anchor="middle">slide_carriage</text>
<rect x="40" y="312" width="150" height="46" rx="6" fill="#edf2f7" stroke="#4a5568" stroke-width="1.5"/><text x="115.0" y="330" font-size="11" font-family="monospace" font-weight="bold" fill="#1a202c" text-anchor="middle">P4  drawer</text><text x="115.0" y="344" font-size="9.5" font-family="monospace" font-weight="normal" fill="#4a5568" text-anchor="middle">drawer_tray</text>
<rect x="40" y="388" width="150" height="46" rx="6" fill="#edf2f7" stroke="#4a5568" stroke-width="1.5"/><text x="115.0" y="406" font-size="11" font-family="monospace" font-weight="bold" fill="#1a202c" text-anchor="middle">P5  knob</text><text x="115.0" y="420" font-size="9.5" font-family="monospace" font-weight="normal" fill="#4a5568" text-anchor="middle">knob_shaft</text>
<rect x="250" y="84" width="150" height="46" rx="6" fill="#c6f6d5" stroke="#38a169" stroke-width="1.5"/><text x="325.0" y="102" font-size="11" font-family="monospace" font-weight="bold" fill="#1a202c" text-anchor="middle">E1</text><text x="325.0" y="116" font-size="9.5" font-family="monospace" font-weight="normal" fill="#4a5568" text-anchor="middle">slide_rail</text>
<rect x="250" y="160" width="150" height="46" rx="6" fill="#c6f6d5" stroke="#38a169" stroke-width="1.5"/><text x="325.0" y="178" font-size="11" font-family="monospace" font-weight="bold" fill="#1a202c" text-anchor="middle">E2</text><text x="325.0" y="192" font-size="9.5" font-family="monospace" font-weight="normal" fill="#4a5568" text-anchor="middle">slide_rail</text>
<rect x="250" y="236" width="150" height="46" rx="6" fill="#c6f6d5" stroke="#38a169" stroke-width="1.5"/><text x="325.0" y="254" font-size="11" font-family="monospace" font-weight="bold" fill="#1a202c" text-anchor="middle">E3</text><text x="325.0" y="268" font-size="9.5" font-family="monospace" font-weight="normal" fill="#4a5568" text-anchor="middle">rack_pinion</text>
<rect x="470" y="84" width="150" height="46" rx="6" fill="#bee3f8" stroke="#3182ce" stroke-width="1.5"/><text x="545.0" y="102" font-size="11" font-family="monospace" font-weight="bold" fill="#1a202c" text-anchor="middle">B1 · use</text><text x="545.0" y="116" font-size="9.5" font-family="monospace" font-weight="normal" fill="#4a5568" text-anchor="middle">translation ≥120mm</text>
<rect x="470" y="160" width="150" height="46" rx="6" fill="#bee3f8" stroke="#3182ce" stroke-width="1.5"/><text x="545.0" y="178" font-size="11" font-family="monospace" font-weight="bold" fill="#1a202c" text-anchor="middle">B2 · use</text><text x="545.0" y="192" font-size="9.5" font-family="monospace" font-weight="normal" fill="#4a5568" text-anchor="middle">translation ≥120mm</text>
<rect x="470" y="236" width="150" height="46" rx="6" fill="#bee3f8" stroke="#3182ce" stroke-width="1.5"/><text x="545.0" y="254" font-size="11" font-family="monospace" font-weight="bold" fill="#1a202c" text-anchor="middle">B3 · use</text><text x="545.0" y="268" font-size="9.5" font-family="monospace" font-weight="normal" fill="#4a5568" text-anchor="middle">rot_to_trans ≥120mm</text>
<rect x="470" y="312" width="150" height="46" rx="6" fill="#fed7aa" stroke="#dd6b20" stroke-width="1.5"/><text x="545.0" y="330" font-size="11" font-family="monospace" font-weight="bold" fill="#1a202c" text-anchor="middle">B4 · assembly</text><text x="545.0" y="344" font-size="9.5" font-family="monospace" font-weight="normal" fill="#4a5568" text-anchor="middle">translation</text>
<rect x="470" y="388" width="150" height="46" rx="6" fill="#bee3f8" stroke="#3182ce" stroke-width="1.5"/><text x="545.0" y="406" font-size="11" font-family="monospace" font-weight="bold" fill="#1a202c" text-anchor="middle">B5 · use</text><text x="545.0" y="420" font-size="9.5" font-family="monospace" font-weight="normal" fill="#4a5568" text-anchor="middle">fixed</text>
<rect x="470" y="464" width="150" height="46" rx="6" fill="#fed7aa" stroke="#dd6b20" stroke-width="1.5"/><text x="545.0" y="482" font-size="11" font-family="monospace" font-weight="bold" fill="#1a202c" text-anchor="middle">B6 · assembly</text><text x="545.0" y="496" font-size="9.5" font-family="monospace" font-weight="normal" fill="#4a5568" text-anchor="middle">translation</text>
<rect x="470" y="540" width="150" height="46" rx="6" fill="#bee3f8" stroke="#3182ce" stroke-width="1.5"/><text x="545.0" y="558" font-size="11" font-family="monospace" font-weight="bold" fill="#1a202c" text-anchor="middle">B7 · use</text><text x="545.0" y="572" font-size="9.5" font-family="monospace" font-weight="normal" fill="#4a5568" text-anchor="middle">fixed</text>
<rect x="470" y="616" width="150" height="46" rx="6" fill="#fed7aa" stroke="#dd6b20" stroke-width="1.5"/><text x="545.0" y="634" font-size="11" font-family="monospace" font-weight="bold" fill="#1a202c" text-anchor="middle">B8 · assembly</text><text x="545.0" y="648" font-size="9.5" font-family="monospace" font-weight="normal" fill="#4a5568" text-anchor="middle">translation</text>
<rect x="700" y="84" width="150" height="46" rx="6" fill="#ffffff" stroke="#805ad5" stroke-width="1.5"/><text x="775.0" y="102" font-size="11" font-family="monospace" font-weight="bold" fill="#1a202c" text-anchor="middle">P-SLIDE-VA-E1</text><text x="775.0" y="116" font-size="9.5" font-family="monospace" font-weight="normal" fill="#4a5568" text-anchor="middle">2 gates / 0 obs</text>
<rect x="700" y="160" width="150" height="46" rx="6" fill="#ffffff" stroke="#805ad5" stroke-width="1.5"/><text x="775.0" y="178" font-size="11" font-family="monospace" font-weight="bold" fill="#1a202c" text-anchor="middle">P-SLIDE-VB-E1</text><text x="775.0" y="192" font-size="9.5" font-family="monospace" font-weight="normal" fill="#4a5568" text-anchor="middle">2 gates / 0 obs</text>
<rect x="700" y="236" width="150" height="46" rx="6" fill="#ffffff" stroke="#805ad5" stroke-width="1.5"/><text x="775.0" y="254" font-size="11" font-family="monospace" font-weight="bold" fill="#1a202c" text-anchor="middle">PR-KEEPOUT-E1</text><text x="775.0" y="268" font-size="9.5" font-family="monospace" font-weight="normal" fill="#4a5568" text-anchor="middle">1 gates / 0 obs</text>
<rect x="700" y="312" width="150" height="46" rx="6" fill="#ffffff" stroke="#805ad5" stroke-width="1.5"/><text x="775.0" y="330" font-size="11" font-family="monospace" font-weight="bold" fill="#1a202c" text-anchor="middle">P-SLIDE-VA-E2</text><text x="775.0" y="344" font-size="9.5" font-family="monospace" font-weight="normal" fill="#4a5568" text-anchor="middle">2 gates / 0 obs</text>
<rect x="700" y="388" width="150" height="46" rx="6" fill="#ffffff" stroke="#805ad5" stroke-width="1.5"/><text x="775.0" y="406" font-size="11" font-family="monospace" font-weight="bold" fill="#1a202c" text-anchor="middle">P-SLIDE-VB-E2</text><text x="775.0" y="420" font-size="9.5" font-family="monospace" font-weight="normal" fill="#4a5568" text-anchor="middle">2 gates / 0 obs</text>
<rect x="700" y="464" width="150" height="46" rx="6" fill="#ffffff" stroke="#805ad5" stroke-width="1.5"/><text x="775.0" y="482" font-size="11" font-family="monospace" font-weight="bold" fill="#1a202c" text-anchor="middle">PR-KEEPOUT-E2</text><text x="775.0" y="496" font-size="9.5" font-family="monospace" font-weight="normal" fill="#4a5568" text-anchor="middle">1 gates / 0 obs</text>
<rect x="700" y="540" width="150" height="46" rx="6" fill="#ffffff" stroke="#805ad5" stroke-width="1.5"/><text x="775.0" y="558" font-size="11" font-family="monospace" font-weight="bold" fill="#1a202c" text-anchor="middle">P-GEAR-VA-E3</text><text x="775.0" y="572" font-size="9.5" font-family="monospace" font-weight="normal" fill="#4a5568" text-anchor="middle">1 gates / 0 obs</text>
<polygon points="940,107.0 1015.0,84 1090,107.0 1015.0,130" fill="#fefcbf" stroke="#b7791f" stroke-width="1.5"/><text x="950" y="111.0" font-size="12" fill="#b7791f">&#9878;</text><text x="1015.0" y="102" font-size="11" font-family="monospace" font-weight="bold" fill="#1a202c" text-anchor="middle">AR1  alignment</text><text x="1015.0" y="116" font-size="9.5" font-family="monospace" font-weight="normal" fill="#4a5568" text-anchor="middle">provenance: task</text>
<rect x="20" y="746" width="14" height="14" fill="#bee3f8" stroke="#3182ce"/><text x="38" y="757" font-size="9" fill="#4a5568">use</text>
<rect x="68.0" y="746" width="14" height="14" fill="#fed7aa" stroke="#dd6b20"/><text x="86.0" y="757" font-size="9" fill="#4a5568">assembly</text>
<rect x="146.0" y="746" width="14" height="14" fill="#e2e8f0" stroke="#718096"/><text x="164.0" y="757" font-size="9" fill="#4a5568">static</text>
<rect x="212.0" y="746" width="14" height="14" fill="#c6f6d5" stroke="#38a169"/><text x="230.0" y="757" font-size="9" fill="#4a5568">element</text>
<rect x="284.0" y="746" width="14" height="14" fill="#fefcbf" stroke="#d69e2e"/><text x="302.0" y="757" font-size="9" fill="#4a5568">feature (hexagon)</text>
<rect x="416.0" y="746" width="14" height="14" fill="#cbd5e0" stroke="#2d3748"/><text x="434.0" y="757" font-size="9" fill="#4a5568">hardware piece [HW]</text>
<rect x="560.0" y="746" width="14" height="14" fill="#fefcbf" stroke="#b7791f"/><text x="578.0" y="757" font-size="9" fill="#4a5568">AssemblyRule (rhombus)</text>
<line x1="728.0" y1="753" x2="752.0" y2="753" stroke="#718096" stroke-width="1.4"/><text x="756.0" y="757" font-size="9" fill="#4a5568">realizes</text>
<line x1="818.0" y1="753" x2="842.0" y2="753" stroke="#718096" stroke-width="1.4" stroke-dasharray="5,4"/><text x="846.0" y="757" font-size="9" fill="#4a5568">imposes</text>
<line x1="910.0" y1="748" x2="910.0" y2="755" stroke="#4a5568" stroke-width="1.4"/><line x1="904.0" y1="755" x2="916.0" y2="755" stroke="#4a5568" stroke-width="1.4"/><line x1="906.0" y1="758" x2="914.0" y2="758" stroke="#4a5568" stroke-width="1.4"/><text x="922.0" y="757" font-size="9" fill="#4a5568">= base</text>
</svg>